<svg preserveAspectRatio="none" width="24" height="24" viewBox="0 0 18 21" fill="none" xmlns="http://www.w3.org/2000/svg">
<path d="M16.5 5.25073H14.4287C14.9169 4.52921 15.1062 3.6465 14.9569 2.78825C14.8076 1.93 14.3313 1.1631 13.6281 0.648856C12.9249 0.134615 12.0497 -0.0868903 11.1866 0.0309306C10.3234 0.148752 9.53962 0.596716 9 1.2806C8.45919 0.600099 7.67605 0.155234 6.8146 0.0391734C5.95315 -0.0768874 5.08021 0.144857 4.37858 0.65797C3.67696 1.17108 3.20107 1.93576 3.05059 2.79187C2.9001 3.64797 3.08669 4.5291 3.57127 5.25073H1.5C1.10233 5.25122 0.721085 5.40942 0.439888 5.69061C0.158691 5.97181 0.000496161 6.35305 0 6.75073V9.75073C0.000496161 10.1484 0.158691 10.5296 0.439888 10.8108C0.721085 11.092 1.10233 11.2502 1.5 11.2507V18.7507C1.5005 19.1484 1.65869 19.5296 1.93989 19.8108C2.22109 20.092 2.60233 20.2502 3 20.2507H15C15.3977 20.2502 15.7789 20.092 16.0601 19.8108C16.3413 19.5296 16.4995 19.1484 16.5 18.7507V11.2507C16.8977 11.2502 17.2789 11.092 17.5601 10.8108C17.8413 10.5296 17.9995 10.1484 18 9.75073V6.75073C17.9995 6.35305 17.8413 5.97181 17.5601 5.69061C17.2789 5.40942 16.8977 5.25122 16.5 5.25073V5.25073ZM9.75 3.37573C9.75 3.00489 9.85997 2.64237 10.066 2.33403C10.272 2.02569 10.5649 1.78537 10.9075 1.64345C11.2501 1.50154 11.6271 1.46441 11.9908 1.53675C12.3545 1.6091 12.6886 1.78768 12.9508 2.0499C13.213 2.31212 13.3916 2.64622 13.464 3.00993C13.5363 3.37365 13.4992 3.75065 13.3573 4.09326C13.2154 4.43587 12.975 4.7287 12.6667 4.93473C12.3584 5.14076 11.9958 5.25073 11.625 5.25073H9.75V3.37573ZM6.375 1.50073C6.8721 1.50132 7.34867 1.69906 7.70017 2.05056C8.05167 2.40206 8.2494 2.87863 8.25 3.37573V5.25073H6.375C5.87772 5.25073 5.40081 5.05318 5.04917 4.70155C4.69754 4.34992 4.5 3.87301 4.5 3.37573C4.5 2.87845 4.69754 2.40153 5.04917 2.0499C5.40081 1.69827 5.87772 1.50073 6.375 1.50073V1.50073ZM1.5 6.75073H8.25V9.75073H1.5V6.75073ZM3 11.2507H8.25V18.7507H3V11.2507ZM15.0009 18.7507H9.75V11.2507H15L15.0009 18.7507ZM9.75 9.75073V6.75073H16.5L16.5009 9.75073H9.75Z" fill="currentColor"/>
</svg>

